<?xml version="1.0" standalone="no"?>
<!DOCTYPE svg PUBLIC "-//W3C//DTD SVG 20010904//EN"
 "http://www.w3.org/TR/2001/REC-SVG-20010904/DTD/svg10.dtd">
<svg version="1.0" xmlns="http://www.w3.org/2000/svg"
 width="261.000000pt" height="261.000000pt" viewBox="0 0 261.000000 261.000000"
 preserveAspectRatio="xMidYMid meet">
<metadata>
Created by potrace 1.11, written by Peter Selinger 2001-2013
</metadata>
<g transform="translate(0.000000,261.000000) scale(0.100000,-0.100000)"
fill="#000000" stroke="none">
<path d="M3 1623 c2 -362 6 -669 10 -683 4 -14 10 -41 13 -60 11 -55 57 -161
94 -215 46 -69 156 -173 223 -214 147 -87 288 -120 492 -116 165 3 258 24 380
84 93 46 127 72 211 158 93 96 143 200 180 383 4 19 9 324 11 678 l4 642 -220
0 -220 0 -1 -590 c0 -499 -2 -602 -16 -667 -39 -190 -143 -286 -323 -300 -208
-15 -339 85 -388 297 -13 57 -15 170 -16 683 l0 577 -219 0 -219 0 4 -657z"/>
<path d="M2167 1049 c-104 -24 -201 -103 -248 -204 -83 -177 -10 -386 167
-476 63 -31 75 -34 158 -34 79 0 99 4 153 29 76 35 144 104 181 184 36 77 38
210 4 286 -43 95 -121 169 -214 202 -51 18 -148 24 -201 13z"/>
</g>
</svg>
