<svg width="224" height="46" viewBox="0 0 224 46" fill="none" xmlns="http://www.w3.org/2000/svg">
<path d="M5.06396 12.5986V24.8813C5.06396 28.4263 6.46289 30.1987 9.26074 30.1987C12.0586 30.1987 13.4575 28.4263 13.4575 24.8813V12.5986H18.4014V24.9912C18.4014 26.7051 18.189 28.1846 17.7642 29.4297C17.354 30.543 16.6436 31.5464 15.6328 32.4399C13.9629 33.8901 11.8389 34.6152 9.26074 34.6152C6.69727 34.6152 4.58057 33.8901 2.91064 32.4399C1.88525 31.5464 1.16016 30.543 0.735352 29.4297C0.325195 28.4336 0.120117 26.9541 0.120117 24.9912V12.5986H5.06396ZM24.6416 12.5986H29.6074V14.5762C31.3359 12.8623 33.2842 12.0054 35.4521 12.0054C37.9424 12.0054 39.8833 12.7891 41.2749 14.3564C42.4761 15.6895 43.0767 17.8647 43.0767 20.8823V34H38.1108V22.0469C38.1108 19.9375 37.8179 18.48 37.2319 17.6743C36.6606 16.854 35.6206 16.4438 34.1118 16.4438C32.4712 16.4438 31.3066 16.9858 30.6182 18.0698C29.9443 19.1392 29.6074 21.0068 29.6074 23.6729V34H24.6416V12.5986ZM54.2827 12.5986V34H49.3389V12.5986H54.2827ZM48.5918 3.69971C48.5918 2.83545 48.9067 2.08838 49.5366 1.4585C50.1665 0.828613 50.9209 0.513672 51.7998 0.513672C52.6934 0.513672 53.4551 0.828613 54.085 1.4585C54.7148 2.07373 55.0298 2.82812 55.0298 3.72168C55.0298 4.61523 54.7148 5.37695 54.085 6.00684C53.4697 6.63672 52.7153 6.95166 51.8218 6.95166C50.9282 6.95166 50.1665 6.63672 49.5366 6.00684C48.9067 5.37695 48.5918 4.60791 48.5918 3.69971ZM65.4888 45.6455H60.5449V12.5986H65.4888V14.9277C67.437 12.9795 69.6489 12.0054 72.1245 12.0054C75.0688 12.0054 77.4932 13.0894 79.3975 15.2573C81.3311 17.4106 82.2979 20.1279 82.2979 23.4092C82.2979 26.6172 81.3384 29.2905 79.4194 31.4292C77.5151 33.5532 75.1128 34.6152 72.2124 34.6152C69.7075 34.6152 67.4663 33.6118 65.4888 31.605V45.6455ZM77.2441 23.4312C77.2441 21.3804 76.6875 19.7104 75.5742 18.4214C74.4463 17.1177 73.0254 16.4658 71.3115 16.4658C69.4951 16.4658 68.0229 17.0957 66.895 18.3555C65.7671 19.6152 65.2031 21.2705 65.2031 23.3213C65.2031 25.3281 65.7671 26.9834 66.895 28.2871C68.0083 29.5615 69.4731 30.1987 71.2896 30.1987C73.0034 30.1987 74.417 29.5542 75.5303 28.2651C76.6729 26.9761 77.2441 25.3647 77.2441 23.4312ZM86.5166 23.1455C86.5166 20.0547 87.6226 17.4253 89.8345 15.2573C92.0464 13.0894 94.7417 12.0054 97.9204 12.0054C101.114 12.0054 103.824 13.0967 106.05 15.2793C108.248 17.4619 109.346 20.1426 109.346 23.3213C109.346 26.5293 108.24 29.2173 106.028 31.3853C103.802 33.5386 101.07 34.6152 97.8325 34.6152C94.6245 34.6152 91.9365 33.5166 89.7686 31.3193C87.6006 29.1514 86.5166 26.4268 86.5166 23.1455ZM91.5703 23.2334C91.5703 25.3721 92.1416 27.064 93.2842 28.3091C94.4561 29.5688 96.0015 30.1987 97.9204 30.1987C99.854 30.1987 101.399 29.5762 102.557 28.3311C103.714 27.0859 104.292 25.4233 104.292 23.3433C104.292 21.2632 103.714 19.6006 102.557 18.3555C101.385 17.0957 99.8394 16.4658 97.9204 16.4658C96.0308 16.4658 94.5 17.0957 93.3281 18.3555C92.1562 19.6152 91.5703 21.2412 91.5703 23.2334ZM119.959 17.2129V34H115.015V17.2129H112.906V12.5986H115.015V4.75439H119.959V12.5986H123.804V17.2129H119.959ZM143.338 12.5986H148.304V34H143.338V31.7588C141.302 33.6631 139.112 34.6152 136.768 34.6152C133.809 34.6152 131.363 33.5459 129.429 31.4072C127.51 29.2246 126.551 26.5 126.551 23.2334C126.551 20.0254 127.51 17.3521 129.429 15.2134C131.348 13.0747 133.75 12.0054 136.636 12.0054C139.126 12.0054 141.36 13.0308 143.338 15.0815V12.5986ZM131.604 23.2334C131.604 25.2842 132.154 26.9541 133.252 28.2432C134.38 29.5469 135.801 30.1987 137.515 30.1987C139.346 30.1987 140.826 29.5688 141.954 28.3091C143.082 27.0054 143.646 25.3501 143.646 23.3433C143.646 21.3364 143.082 19.6812 141.954 18.3774C140.826 17.103 139.361 16.4658 137.559 16.4658C135.86 16.4658 134.439 17.1104 133.296 18.3994C132.168 19.7031 131.604 21.3145 131.604 23.2334ZM155.313 31.5391C155.313 30.7188 155.613 30.0083 156.214 29.4077C156.814 28.8071 157.532 28.5068 158.367 28.5068C159.202 28.5068 159.92 28.8071 160.521 29.4077C161.121 30.0083 161.421 30.7261 161.421 31.561C161.421 32.4106 161.121 33.1357 160.521 33.7363C159.935 34.3223 159.217 34.6152 158.367 34.6152C157.503 34.6152 156.778 34.3223 156.192 33.7363C155.606 33.1504 155.313 32.418 155.313 31.5391ZM168.431 12.5986H173.375V14.5762C174.327 13.5801 175.14 12.9062 175.813 12.5547C176.531 12.1885 177.432 12.0054 178.516 12.0054C180.933 12.0054 182.845 13.0601 184.251 15.1694C185.804 13.0601 187.906 12.0054 190.557 12.0054C195.376 12.0054 197.786 14.9277 197.786 20.7725V34H192.82V22.1128C192.82 20.062 192.571 18.6118 192.073 17.7622C191.561 16.8979 190.718 16.4658 189.546 16.4658C188.184 16.4658 187.188 16.9785 186.558 18.0039C185.943 19.0293 185.635 20.6772 185.635 22.9478V34H180.669V22.1787C180.669 18.3701 179.571 16.4658 177.374 16.4658C175.982 16.4658 174.964 16.9858 174.319 18.0259C173.689 19.0659 173.375 20.7065 173.375 22.9478V34H168.431V12.5986ZM223.516 24.4639H208.179C208.311 26.2217 208.882 27.6206 209.893 28.6606C210.904 29.686 212.2 30.1987 213.782 30.1987C215.013 30.1987 216.031 29.9058 216.836 29.3198C217.627 28.7339 218.528 27.6499 219.539 26.0679L223.714 28.397C223.069 29.4956 222.388 30.4404 221.67 31.2314C220.953 32.0078 220.184 32.6523 219.363 33.165C218.543 33.6631 217.657 34.0293 216.705 34.2637C215.752 34.498 214.72 34.6152 213.606 34.6152C210.413 34.6152 207.85 33.5898 205.916 31.5391C203.982 29.4736 203.016 26.7344 203.016 23.3213C203.016 19.9375 203.953 17.1982 205.828 15.1035C207.718 13.0381 210.223 12.0054 213.343 12.0054C216.492 12.0054 218.982 13.0088 220.813 15.0156C222.63 17.0078 223.538 19.769 223.538 23.2993L223.516 24.4639ZM218.44 20.4209C217.752 17.7842 216.089 16.4658 213.453 16.4658C212.852 16.4658 212.288 16.561 211.761 16.7515C211.233 16.9272 210.75 17.1909 210.311 17.5425C209.886 17.8794 209.52 18.2896 209.212 18.7729C208.904 19.2563 208.67 19.8057 208.509 20.4209H218.44Z" fill="white"/>
</svg>
