<svg width="17" height="18" viewBox="0 0 17 18" fill="none" xmlns="http://www.w3.org/2000/svg">
<path fill-rule="evenodd" clip-rule="evenodd" d="M16.4579 6.48045H10.0208L12.3111 4.19016C11.4146 3.49965 10.3382 3.07013 9.20168 2.95819C7.80387 2.82052 6.40156 3.17178 5.2337 3.95211C4.06584 4.73245 3.20468 5.89359 2.79696 7.23768C2.38923 8.58178 2.46017 10.0257 2.99767 11.3233C3.53518 12.621 4.506 13.6921 5.74472 14.3542C6.98345 15.0163 8.41343 15.2285 9.79101 14.9544C11.1686 14.6804 12.4086 13.9372 13.2996 12.8515C14.1907 11.7657 14.6777 10.4046 14.6777 9.00002H16.6777C16.6777 10.8673 16.0302 12.6768 14.8456 14.1203C13.661 15.5637 12.0126 16.5517 10.1812 16.916C8.34979 17.2803 6.44873 16.9983 4.80193 16.1181C3.15513 15.2378 1.86449 13.8138 1.14991 12.0887C0.435334 10.3635 0.341033 8.44399 0.883077 6.65712C1.42512 4.87024 2.56997 3.32658 4.12256 2.28918C5.67515 1.25177 7.53942 0.784794 9.39771 0.967819C10.9953 1.12517 12.5035 1.75457 13.7342 2.76705L16.4579 0.043335V6.48045Z" fill="#8F8F8F"/>
</svg>
