<svg width="18" height="16" viewBox="0 0 18 16" fill="none" xmlns="http://www.w3.org/2000/svg">
<path fill-rule="evenodd" clip-rule="evenodd" d="M8.29289 0.292893C8.68342 -0.0976311 9.31658 -0.0976311 9.70711 0.292893L17.7071 8.29289C18.0976 8.68342 18.0976 9.31658 17.7071 9.70711C17.3166 10.0976 16.6834 10.0976 16.2929 9.70711L9 2.41421L1.70711 9.70711C1.31658 10.0976 0.683417 10.0976 0.292893 9.70711C-0.0976311 9.31658 -0.0976311 8.68342 0.292893 8.29289L8.29289 0.292893Z" fill="#8F8F8F"/>
<path fill-rule="evenodd" clip-rule="evenodd" d="M4 9C4.55228 9 5 9.44772 5 10V14H13V10C13 9.44772 13.4477 9 14 9C14.5523 9 15 9.44772 15 10V15C15 15.5523 14.5523 16 14 16H4C3.44772 16 3 15.5523 3 15V10C3 9.44772 3.44772 9 4 9Z" fill="#8F8F8F"/>
<path d="M7 11C7 10.4477 7.44772 10 8 10H10C10.5523 10 11 10.4477 11 11V14C11 14.5523 10.5523 15 10 15H8C7.44772 15 7 14.5523 7 14V11Z" fill="#8F8F8F"/>
</svg>
