<svg width="25" height="31" viewBox="0 0 25 31" fill="none" xmlns="http://www.w3.org/2000/svg">
<path d="M22.3645 4.55244C22.8367 4.83883 22.9874 5.45381 22.701 5.92604L12.637 22.5201C12.3506 22.9923 11.7357 23.143 11.2634 22.8566L6.87214 20.1933C6.39991 19.907 6.24927 19.292 6.53566 18.8197L16.5996 2.22568C16.886 1.75346 17.501 1.60281 17.9732 1.88921L22.3645 4.55244Z" fill="white"/>
<path d="M5.72154 28.7802C5.01919 29.2376 4.09959 28.6799 4.18054 27.8456L4.68657 22.6309C4.75773 21.8976 5.57051 21.4904 6.20046 21.8724L10.0849 24.2283C10.7149 24.6103 10.7294 25.5193 10.112 25.9213L5.72154 28.7802Z" fill="white"/>
</svg>
