<svg width="22" height="32" viewBox="0 0 22 32" fill="none" xmlns="http://www.w3.org/2000/svg">
<path fill-rule="evenodd" clip-rule="evenodd" d="M11 18C8.15492 18 4 21.1254 4 30C4 31.1046 3.10457 32 2 32C0.89543 32 0 31.1046 0 30C0 20.2079 4.84508 14 11 14C17.1549 14 22 20.2079 22 30C22 31.1046 21.1046 32 20 32C18.8954 32 18 31.1046 18 30C18 21.1254 13.8451 18 11 18Z" fill="white"/>
<path d="M17 6C17 9.31371 14.3137 12 11 12C7.68629 12 5 9.31371 5 6C5 2.68629 7.68629 0 11 0C14.3137 0 17 2.68629 17 6Z" fill="white"/>
</svg>
