<svg width="19" height="19" viewBox="0 0 19 19" fill="none" xmlns="http://www.w3.org/2000/svg">
<path fill-rule="evenodd" clip-rule="evenodd" d="M0 1.5C0 0.671573 0.671573 0 1.5 0H6C6.82843 0 7.5 0.671573 7.5 1.5C7.5 2.32843 6.82843 3 6 3H3V15.5H15V13.5C15 12.6716 15.6716 12 16.5 12C17.3284 12 18 12.6716 18 13.5V17C18 17.8284 17.3284 18.5 16.5 18.5H1.5C0.671573 18.5 0 17.8284 0 17V1.5ZM13.3787 3.5L5.93934 10.9393C5.35355 11.5251 5.35355 12.4749 5.93934 13.0607C6.52513 13.6464 7.47487 13.6464 8.06066 13.0607L15.5 5.62132V8C15.5 8.82843 16.1716 9.5 17 9.5C17.8284 9.5 18.5 8.82843 18.5 8V2C18.5 1.61612 18.3536 1.23223 18.0607 0.93934C17.9168 0.795525 17.7511 0.687018 17.5742 0.613818C17.3973 0.540478 17.2034 0.5 17 0.5H11C10.1716 0.5 9.5 1.17157 9.5 2C9.5 2.82843 10.1716 3.5 11 3.5H13.3787Z" fill="#5C5C5C"/>
</svg>
