<svg width="55" height="43" viewBox="0 0 55 43" fill="none" xmlns="http://www.w3.org/2000/svg">
<path d="M9.22552 0.962036V23.8777C9.22552 30.4914 11.836 33.7982 17.057 33.7982C22.2779 33.7982 24.8884 30.4914 24.8884 23.8777V0.962036H34.1139V24.0826C34.1139 27.2802 33.7176 30.0404 32.9249 32.3634C32.1595 34.4404 30.8337 36.3125 28.9476 37.9796C25.8315 40.6852 21.8679 42.038 17.057 42.038C12.2734 42.038 8.32347 40.6852 5.20729 37.9796C3.29385 36.3125 1.94078 34.4404 1.14806 32.3634C0.382688 30.505 0 27.7448 0 24.0826V0.962036H9.22552Z" fill="white"/>
<circle cx="47.3418" cy="34.3798" r="7.65823" fill="white"/>
</svg>
