<svg clip-rule="evenodd" fill-rule="evenodd" stroke-linejoin="round" stroke-miterlimit="1.41421" viewBox="0 0 3747 1167" xmlns="http://www.w3.org/2000/svg"><path d="m-118-227h7731v1600h-7731z" fill="none"/><g fill="#005bac" fill-rule="nonzero"><path d="m969.297 765.575-109.731 27.521c-64.17 90.124-169.503 148.904-288.566 148.904-44.985 0-88.001-8.41-127.587-23.712l59.068-60.9c21.923 5.579 44.859 8.612 68.519 8.612 127.018 0 234.062-85.218 267.275-201.575l150.374 49.067c-5.365 17.869-11.84 35.259-19.352 52.083m114.552-143.514c.737-11.262 1.151-22.612 1.151-34.061 0-34.642-3.45-68.475-9.984-101.196l-72.283 40.2c2.791 19.936 4.267 40.292 4.267 60.996 0 9.2-.319 18.324-.881 27.382l-157.469-13.529c.225-4.59.35-9.206.35-13.853 0-62.917-20.926-120.933-56.164-167.522l-7.153 5.46c17.338 22.931 30.976 48.774 40.293 76.598l-7.978 4.268c8.397 25.555 13.002 52.831 13.002 81.196 0 4.129-.12 8.229-.311 12.31l-129.718-11.144c-.089 10.079-1.334 19.877-3.593 29.284l123.773 40.388c-30.852 109.15-131.124 189.162-250.151 189.162-18.495 0-36.517-1.981-53.911-5.673l77.911-80.327-184-22-14-174-154.045 155.23c-16.72-41.128-25.955-86.097-25.955-133.23 0-115.423 55.252-217.931 140.737-282.554l10.136-39.804c58.8-37.13 128.446-58.642 203.127-58.642 8.916 0 17.754.333 26.516.936.053-.005.104-.012.156-.017l.015.026h.001l27.026 45.334c41.418 6.596 80.296 20.731 115.276 40.892l15.165-14.325c-36.529-21.878-77.235-37.5-120.684-45.252l-27.402-45.961c-11.884-1.06-23.909-1.633-36.069-1.633-71.271 0-138.157 18.658-196.155 51.262l11.538-45.311c56.063-26.255 118.618-40.951 184.617-40.951 13.396 0 26.641.638 39.73 1.821l40.195-73.625c-26.047-4.067-52.737-6.196-79.925-6.196-283.874 0-514 230.126-514 514 0 97.314 27.051 188.307 74.033 265.883l-53.366 231.451 236.168-52.212c75.642 43.796 163.472 68.878 257.165 68.878 231.8 0 427.734-153.451 491.829-364.302l36.145 11.794c12.122-39.679 19.878-81.257 22.744-124.178z"/><path d="m3555 679h-496v-268h318.638l177.362 141.288zm-708 212h-290.886l-129.114-124.857v-35.143h420zm160-532v320h-108v-108h-980v-110h-52v430h-580v-268h474v-52h-474v-110h-52v482h684v-165.028l160.99-154.972h767.01v56h-472v264h524v-212h108v212h52v-212h548v-372z"/></g></svg>